<svg xmlns="http://www.w3.org/2000/svg" width="128" height="128" viewBox="0 0 128 128" fill="none">
  <defs>
    <linearGradient id="prg" x1="18" y1="14" x2="110" y2="118" gradientUnits="userSpaceOnUse">
      <stop stop-color="#0F766E"/>
      <stop offset="1" stop-color="#22C55E"/>
    </linearGradient>
    <linearGradient id="glow" x1="38" y1="30" x2="94" y2="98" gradientUnits="userSpaceOnUse">
      <stop stop-color="#FFFFFF" stop-opacity="0.22"/>
      <stop offset="1" stop-color="#FFFFFF" stop-opacity="0"/>
    </linearGradient>
  </defs>
  <rect x="12" y="12" width="104" height="104" rx="26" fill="url(#prg)"/>
  <path d="M40 92c8-3 16-12 20-20 2-4 4-9 5-14l2-16c8 2 17 7 22 12l-9 9c-4 4-10 8-16 10-7 3-14 4-21 4l-3 15Z" fill="#0B1220" fill-opacity="0.16"/>
  <path d="M69 33c-10 2-22 12-28 23-7 13-8 26-8 26s13-1 26-8c11-6 21-18 23-28 1-6 0-11-1-13-2-1-7-2-12 0Z" fill="#FFFFFF"/>
  <path d="M58 62c4-4 10-4 14 0 4 4 4 10 0 14-4 4-10 4-14 0-4-4-4-10 0-14Z" fill="#0F172A" fill-opacity="0.08"/>
  <path d="M60 64c3-3 7-3 10 0 3 3 3 7 0 10-3 3-7 3-10 0-3-3-3-7 0-10Z" fill="#0F766E"/>
  <path d="M35 86c8 0 15-2 22-5 5-2 9-5 13-9l6-6 4 4-6 6c-5 5-10 9-17 12-8 4-16 6-25 6l3-8Z" fill="#FFFFFF" fill-opacity="0.92"/>
  <path d="M38 92l-4 10c-1 3 2 6 5 5l10-4c-4-2-8-6-11-11Z" fill="#FFFFFF" fill-opacity="0.9"/>
  <path d="M28 46c20-20 51-20 72 0 20 20 20 51 0 72" stroke="url(#glow)" stroke-width="8" stroke-linecap="round" opacity="0.55"/>
</svg>
